<svg xmlns="http://www.w3.org/2000/svg" width="250" height="250" fill="none" viewBox="0 0 250 250">
<!-- SVG created with Arrow, by QuiverAI (https://quiver.ai) -->
  <path d="m227.3 91.6h-205c-9.36 0-15.81 7.89-15.81 17.25v57.58c0 7.71 7.04 15.02 15.14 15.02h205.5c9.1 0 16.4-7.56 16.4-15.27v-57.15c0-9.72-6.73-17.43-16.22-17.43z" fill="url(#paint0_linear_556_2932)" stroke="url(#paint1_linear_556_2932)" stroke-miterlimit="10" stroke-width="2"/>
  <path d="m224.2 98.74h-198.7c-7.25 0-11.81 5.97-11.81 12.2v53.05c0 6.61 5.22 9.97 11.31 9.97h199.5c7.39 0 11.48-5.39 11.48-10.35v-52.53c0-6.97-5.11-12.34-11.74-12.34z" fill="url(#paint2_linear_556_2932)" stroke="url(#paint3_linear_556_2932)" stroke-miterlimit="10" stroke-width="2"/>
  <path d="m34.32 119.6h8.07v13.16h2.14l10.88-13.16h8.07l-13.55 16.37 14.06 18.35h-8.42l-10.88-14.74h-2.3v14.74h-8.07v-34.72z" fill="url(#paint4_linear_556_2932)"/>
  <path d="m66.51 128.2h13.85c6.61 0 8.53 3.29 8.53 6.2 0 2.82-1.87 4.72-3.79 5.39v0.11c3.37 0.83 4.87 3.23 4.87 6.41 0 4.54-3.47 7.9-8.84 7.9h-14.62v-26.01zm6.71 4.96v5.59h5.99c2.72 0 3.5-1.42 3.5-2.67 0-1.42-0.89-2.92-3.9-2.92h-5.59zm0 9.87v6.39h6.27c2.91 0 4.02-1.66 4.02-3.21 0-1.72-1.17-3.18-3.86-3.18h-6.43z" fill="url(#paint4_linear_556_2932)"/>
  <path d="m94.29 128.2h6.88v16.38h0.16l9.73-16.38h7.41v26.17h-6.88v-16.06h-0.16l-10 16.06h-7.14v-26.17z" fill="url(#paint4_linear_556_2932)"/>
  <path d="m121.9 135.2c0.32-5.01 3.96-7.93 11.26-7.93 7.31 0 10.53 2.97 10.53 7.77 0 3.07-1.77 4.72-4.07 5.32v0.11c3.42 0.89 4.92 3.34 4.92 6.31 0 5.26-4.59 8.23-11.22 8.23-6.93 0-10.99-3.34-11.53-8.94h7.14c0.22 2.59 1.98 3.48 4.72 3.48 3.26 0 4.3-1.61 4.3-3.33 0-1.96-1.22-3.28-4.27-3.28h-3.9v-4.5h3.43c3.31 0 4.46-1.1 4.46-2.92s-1.15-3.19-4.11-3.19c-2.74 0-4.24 1.11-4.46 2.87h-7.2z" fill="url(#paint4_linear_556_2932)"/>
  <path d="m164.8 119c10.47 0 16.8 7.71 16.8 17.99s-6.33 17.83-16.8 17.83-16.85-7.55-16.85-17.83 6.38-17.99 16.85-17.99zm-0.05 6.33c-7.2 0-9.35 6.66-9.35 11.72 0 5.32 2.15 11.55 9.35 11.55s9.29-6.23 9.29-11.55c0-5.06-2.09-11.72-9.29-11.72z" fill="url(#paint4_linear_556_2932)"/>
  <path d="m186.7 119.6h6.98v13.91h1.92l11.58-13.91h7.75l-14.17 16.54 14.38 18.18h-8.33l-11.04-14.69h-2.09v14.69h-6.98v-34.72z" fill="url(#paint4_linear_556_2932)"/>
  <path d="m205.8 67.31h-29.97c-4.24 0-5.79 3.81-5.79 5.98v32.59c0 3.23 2.63 5.86 5.99 5.86h29.47c4.16 0 5.42-3.7 5.42-5.65v-32.49c0-3.46-2.2-6.29-5.12-6.29z" fill="url(#paint10_linear_556_2932)" stroke="url(#paint11_linear_556_2932)" stroke-miterlimit="10" stroke-width="2.5"/>
  <path d="m176.8 78.99 3.31 3.31 5.66-6.58" stroke="url(#paint12_linear_556_2932)" stroke-linecap="round" stroke-linejoin="round" stroke-width="2.5"/>
  <path d="m176.8 89.46 2.68 2.68 5.92-5.92" stroke="url(#paint13_linear_556_2932)" stroke-linecap="round" stroke-linejoin="round" stroke-width="2.5"/>
  <path d="m176.8 100.7 2.92 2.91 5.99-6.52" stroke="url(#paint14_linear_556_2932)" stroke-linecap="round" stroke-linejoin="round" stroke-width="2.5"/>
  <path d="m190.4 78.61h13.06" stroke="url(#paint15_linear_556_2932)" stroke-linecap="round" stroke-linejoin="round" stroke-width="2.5"/>
  <path d="m189.9 89.83h13.6" stroke="url(#paint16_linear_556_2932)" stroke-linecap="round" stroke-linejoin="round" stroke-width="2.5"/>
  <path d="m190.4 100.7h13.06" stroke="url(#paint17_linear_556_2932)" stroke-linecap="round" stroke-linejoin="round" stroke-width="2.5"/>
  <defs>
    <linearGradient id="paint0_linear_556_2932" x1="6.468" x2="243.5" y1="136.5" y2="136.5" gradientUnits="userSpaceOnUse">
      <stop stop-color="#FEFFFE" offset="0"/>
      <stop stop-color="#D0D0F1" offset="1"/>
    </linearGradient>
    <linearGradient id="paint1_linear_556_2932" x1="5.468" x2="244.5" y1="136.5" y2="136.5" gradientUnits="userSpaceOnUse">
      <stop stop-color="#050535" offset="0"/>
      <stop stop-color="#6666A9" offset="1"/>
    </linearGradient>
    <linearGradient id="paint2_linear_556_2932" x1="13.7" x2="236" y1="136.3" y2="136.3" gradientUnits="userSpaceOnUse">
      <stop stop-color="#FEFFFE" offset="0"/>
      <stop stop-color="#E9EBF5" offset="1"/>
    </linearGradient>
    <linearGradient id="paint3_linear_556_2932" x1="12.7" x2="237" y1="136.3" y2="136.3" gradientUnits="userSpaceOnUse">
      <stop stop-color="#050535" offset="0"/>
      <stop stop-color="#6666A9" offset="1"/>
    </linearGradient>
    <linearGradient id="paint4_linear_556_2932" x1="33.5" x2="215.2" y1="137" y2="137" gradientUnits="userSpaceOnUse">
      <stop stop-color="#050535" offset="0"/>
      <stop stop-color="#6666A9" offset="1"/>
    </linearGradient>
    <linearGradient id="paint10_linear_556_2932" x1="168.8" x2="212" y1="89.51" y2="89.51" gradientUnits="userSpaceOnUse">
      <stop stop-color="#FEFFFE" offset="0"/>
      <stop stop-color="#D0D0F1" offset="1"/>
    </linearGradient>
    <linearGradient id="paint11_linear_556_2932" x1="168.8" x2="212" y1="89.51" y2="89.51" gradientUnits="userSpaceOnUse">
      <stop stop-color="#313171" offset="0"/>
      <stop stop-color="#7070B6" offset="1"/>
    </linearGradient>
    <linearGradient id="paint12_linear_556_2932" x1="176" x2="186.6" y1="79.07" y2="79.07" gradientUnits="userSpaceOnUse">
      <stop stop-color="#313171" offset="0"/>
      <stop stop-color="#7070B6" offset="1"/>
    </linearGradient>
    <linearGradient id="paint13_linear_556_2932" x1="176" x2="186.2" y1="89.18" y2="89.18" gradientUnits="userSpaceOnUse">
      <stop stop-color="#313171" offset="0"/>
      <stop stop-color="#7070B6" offset="1"/>
    </linearGradient>
    <linearGradient id="paint14_linear_556_2932" x1="176" x2="186.5" y1="100.3" y2="100.3" gradientUnits="userSpaceOnUse">
      <stop stop-color="#313171" offset="0"/>
      <stop stop-color="#7070B6" offset="1"/>
    </linearGradient>
    <linearGradient id="paint15_linear_556_2932" x1="189.7" x2="204.3" y1="78.61" y2="78.61" gradientUnits="userSpaceOnUse">
      <stop stop-color="#313171" offset="0"/>
      <stop stop-color="#7070B6" offset="1"/>
    </linearGradient>
    <linearGradient id="paint16_linear_556_2932" x1="189.2" x2="204.3" y1="89.83" y2="89.83" gradientUnits="userSpaceOnUse">
      <stop stop-color="#313171" offset="0"/>
      <stop stop-color="#7070B6" offset="1"/>
    </linearGradient>
    <linearGradient id="paint17_linear_556_2932" x1="189.7" x2="204.3" y1="100.7" y2="100.7" gradientUnits="userSpaceOnUse">
      <stop stop-color="#313171" offset="0"/>
      <stop stop-color="#7070B6" offset="1"/>
    </linearGradient>
  </defs>
</svg>